<svg xmlns="http://www.w3.org/2000/svg" xmlns:xlink="http://www.w3.org/1999/xlink" viewBox="0 0 92.11 93.73"><defs><style>.a{isolation:isolate;}.b{fill:url(#a);}.c{fill:url(#b);}.d{opacity:0.6;fill:url(#c);}.d,.e,.f,.h,.j,.l,.n{mix-blend-mode:overlay;}.e{opacity:0.4;fill:url(#d);}.f{opacity:0.2;fill:url(#e);}.g{fill:url(#f);}.h{fill:url(#g);}.i{fill:url(#h);}.j{fill:url(#i);}.k{fill:url(#j);}.l{fill:url(#k);}.m{fill:url(#l);}.n{fill:url(#m);}</style><linearGradient id="a" x1="631.7" y1="232.46" x2="643.23" y2="196.17" gradientUnits="userSpaceOnUse"><stop offset="0.16" stop-color="#ffe036"/><stop offset="1" stop-color="#fa761c"/></linearGradient><radialGradient id="b" cx="650.19" cy="153.27" r="70.26" gradientTransform="translate(1300.39 265.24) rotate(180) scale(1 0.73)" gradientUnits="userSpaceOnUse"><stop offset="0" stop-color="#b6ccd2"/><stop offset="0.2" stop-color="#97b6be"/><stop offset="1" stop-color="#5d87b4"/></radialGradient><radialGradient id="c" cx="1262.34" cy="-1754.93" r="8.48" gradientTransform="matrix(-0.84, 1.15, -1.62, -1.31, -1133.59, -3602.4)" gradientUnits="userSpaceOnUse"><stop offset="0" stop-color="#fff"/><stop offset="0.1" stop-color="#fff" stop-opacity="0.85"/><stop offset="0.29" stop-color="#fff" stop-opacity="0.59"/><stop offset="0.47" stop-color="#fff" stop-opacity="0.38"/><stop offset="0.63" stop-color="#fff" stop-opacity="0.22"/><stop offset="0.78" stop-color="#fff" stop-opacity="0.1"/><stop offset="0.91" stop-color="#fff" stop-opacity="0.03"/><stop offset="1" stop-color="#fff" stop-opacity="0"/></radialGradient><radialGradient id="d" cx="1262.93" cy="-1769.86" r="6.66" xlink:href="#c"/><radialGradient id="e" cx="603.46" cy="191.02" r="4.87" gradientTransform="translate(-181.49 -48.25) rotate(-25.71) scale(1 2.91)" xlink:href="#c"/><radialGradient id="f" cx="267.8" cy="13.07" r="9.89" gradientTransform="translate(384.56 71.8) rotate(30)" gradientUnits="userSpaceOnUse"><stop offset="0" stop-color="#d0f2ff"/><stop offset="0.2" stop-color="#d5f3ff"/><stop offset="1" stop-color="#85bcf1"/></radialGradient><radialGradient id="g" cx="1351.22" cy="-1566.32" r="1.55" gradientTransform="matrix(-1.3, 0.58, -0.75, -1.95, 1204.38, -3614.57)" xlink:href="#c"/><radialGradient id="h" cx="279.57" cy="20.18" r="9.89" xlink:href="#f"/><radialGradient id="i" cx="1349.9" cy="-1572.9" r="1.55" gradientTransform="matrix(-1.3, 0.58, -0.75, -1.95, 1204.38, -3614.57)" xlink:href="#c"/><radialGradient id="j" cx="313.72" cy="-13.45" r="9.89" xlink:href="#f"/><radialGradient id="k" cx="1316.46" cy="-1576.66" r="1.55" gradientTransform="matrix(-1.3, 0.58, -0.75, -1.95, 1204.38, -3614.57)" xlink:href="#c"/><radialGradient id="l" cx="309.86" cy="2.7" r="9.89" xlink:href="#f"/><radialGradient id="m" cx="1326.97" cy="-1579.72" r="1.55" gradientTransform="matrix(-1.3, 0.58, -0.75, -1.95, 1204.38, -3614.57)" xlink:href="#c"/></defs><title>heavy rain</title><g class="a"><path class="b" d="M645,210h-4.36l7.19-14a8.36,8.36,0,0,0,.71-2,8,8,0,1,0-15.7-3.34L628,213.31l-0.15.69a4.93,4.93,0,0,0-.1,1,4.87,4.87,0,0,0,4.87,4.87H638l-2.87,12a1.13,1.13,0,0,0,2,.93L648.54,217A4.38,4.38,0,0,0,645,210Z" transform="translate(-592.52 -139.5)"/><path class="c" d="M665.52,164.64a27,27,0,0,0-53.88,0,20.12,20.12,0,0,0,1,40.22h51.86A20.12,20.12,0,0,0,665.52,164.64Z" transform="translate(-592.52 -139.5)"/><path class="d" d="M640.47,167.15c-7.58-6.15-10.53-15.5-6.61-20.9s13.26-4.79,20.84,1.35,10.53,15.51,6.6,20.9S648,173.29,640.47,167.15Z" transform="translate(-592.52 -139.5)"/><path class="e" d="M665.66,185.31c-6-4.83-8.28-12.18-5.19-16.43s10.42-3.77,16.37,1.06,8.28,12.19,5.19,16.43S671.61,190.14,665.66,185.31Z" transform="translate(-592.52 -139.5)"/><path class="f" d="M606.91,186c-4.39-6.86-9.5-10.15-11.41-7.37s0.11,10.59,4.5,17.44,9.5,10.15,11.41,7.37S611.3,192.84,606.91,186Z" transform="translate(-592.52 -139.5)"/><path class="g" d="M615.45,218a4.11,4.11,0,0,1-7.12-4.11c1.14-2,8.16-5.91,8.16-5.91S616.58,216,615.45,218Z" transform="translate(-592.52 -139.5)"/><path class="h" d="M608.45,217.27c-0.64-1.66-.25-3.42.87-3.91s2.54,0.45,3.17,2.12,0.25,3.42-.87,3.91S609.08,218.94,608.45,217.27Z" transform="translate(-592.52 -139.5)"/><path class="i" d="M622.08,230a4.11,4.11,0,0,1-7.12-4.11c1.14-2,8.16-5.91,8.16-5.91S623.21,228,622.08,230Z" transform="translate(-592.52 -139.5)"/><path class="j" d="M615.07,229.32c-0.64-1.66-.25-3.42.87-3.91s2.54,0.45,3.17,2.12,0.25,3.42-.86,3.91S615.71,231,615.07,229.32Z" transform="translate(-592.52 -139.5)"/><path class="k" d="M668.47,218a4.11,4.11,0,0,1-7.12-4.11c1.13-2,8.16-5.91,8.16-5.91S669.6,216,668.47,218Z" transform="translate(-592.52 -139.5)"/><path class="l" d="M661.47,217.27c-0.64-1.66-.25-3.42.87-3.91s2.54,0.45,3.17,2.12,0.25,3.42-.87,3.91S662.11,218.94,661.47,217.27Z" transform="translate(-592.52 -139.5)"/><path class="m" d="M657.05,230a4.11,4.11,0,0,1-7.12-4.11c1.14-2,8.16-5.91,8.16-5.91S658.19,228,657.05,230Z" transform="translate(-592.52 -139.5)"/><path class="n" d="M650.05,229.32c-0.64-1.66-.25-3.42.87-3.91s2.54,0.45,3.17,2.12,0.25,3.42-.87,3.91S650.69,231,650.05,229.32Z" transform="translate(-592.52 -139.5)"/></g></svg>