<svg xmlns="http://www.w3.org/2000/svg" xmlns:xlink="http://www.w3.org/1999/xlink" viewBox="0 0 67.35 87.07"><defs><style>.a{isolation:isolate;}.b{fill:url(#a);}.c{fill:url(#b);}.d,.e{mix-blend-mode:overlay;}.d{fill:url(#c);}.e{opacity:0.4;fill:url(#d);}.f{fill:url(#e);}.g{fill:#a3aad2;}.h{fill:url(#f);}.i{fill:url(#g);}</style><linearGradient id="a" x1="65.41" y1="42.95" x2="26.79" y2="86.1" gradientUnits="userSpaceOnUse"><stop offset="0" stop-color="#ffba24"/><stop offset="1" stop-color="#f50"/></linearGradient><radialGradient id="b" cx="309.58" cy="306.07" r="30.89" gradientTransform="matrix(-1, 0, 0, 1, 358.68, -250.94)" gradientUnits="userSpaceOnUse"><stop offset="0" stop-color="#fff4c3"/><stop offset="0.16" stop-color="#ffe036"/><stop offset="1" stop-color="#fa761c"/></radialGradient><radialGradient id="c" cx="1512.65" cy="-1650.65" r="4.64" gradientTransform="matrix(-0.84, 1.15, -1.62, -1.31, -1133.59, -3602.4)" gradientUnits="userSpaceOnUse"><stop offset="0" stop-color="#fff"/><stop offset="0.1" stop-color="#fff" stop-opacity="0.85"/><stop offset="0.29" stop-color="#fff" stop-opacity="0.59"/><stop offset="0.47" stop-color="#fff" stop-opacity="0.38"/><stop offset="0.63" stop-color="#fff" stop-opacity="0.22"/><stop offset="0.78" stop-color="#fff" stop-opacity="0.1"/><stop offset="0.91" stop-color="#fff" stop-opacity="0.03"/><stop offset="1" stop-color="#fff" stop-opacity="0"/></radialGradient><radialGradient id="d" cx="-2602.04" cy="2946" r="4.47" gradientTransform="matrix(-1.17, -1.1, 0.22, -0.73, -3449.59, -393.7)" xlink:href="#c"/><linearGradient id="e" y1="43.53" x2="39.16" y2="43.53" gradientUnits="userSpaceOnUse"><stop offset="0" stop-color="#dbe1ff"/><stop offset="1" stop-color="#cbd1e9"/></linearGradient><linearGradient id="f" x1="236.57" y1="277.66" x2="236.57" y2="301.06" gradientUnits="userSpaceOnUse"><stop offset="0" stop-color="#e93c28"/><stop offset="1" stop-color="#bb160a"/></linearGradient><radialGradient id="g" cx="17.37" cy="75.54" r="12.28" gradientUnits="userSpaceOnUse"><stop offset="0" stop-color="#ff909a"/><stop offset="0.2" stop-color="#e93c28"/><stop offset="1" stop-color="#bb160a"/></radialGradient></defs><title>hot</title><g class="a"><polygon class="b" points="62.57 79.03 57.75 79.34 56.85 84.08 52.22 82.73 49.74 86.87 45.85 84.02 42.11 87.07 39.43 83.06 34.88 84.64 33.73 79.95 28.91 79.89 29.43 75.09 24.92 73.38 27.06 69.05 23.41 65.89 26.89 62.56 24.54 58.35 28.95 56.4 28.19 51.64 33 51.32 33.91 46.59 38.54 47.94 41.01 43.79 44.9 46.65 48.64 43.6 51.32 47.61 55.88 46.02 57.02 50.71 61.85 50.78 61.32 55.58 65.83 57.29 63.7 61.62 67.35 64.77 63.86 68.11 66.21 72.32 61.8 74.26 62.57 79.03"/><circle class="c" cx="45.38" cy="65.33" r="16.27"/><path class="d" d="M264.85,314.6c-4.14-3.36-5.76-8.48-3.61-11.44s7.25-2.62,11.4.74,5.76,8.48,3.61,11.43S269,318,264.85,314.6Z" transform="translate(-216.99 -250.94)"/><path class="e" d="M248,319.87c0.55-1.8,3.34-1.05,6.24,1.67s4.8,6.38,4.25,8.18-3.34,1.05-6.24-1.67S247.44,321.66,248,319.87Z" transform="translate(-216.99 -250.94)"/><rect class="f" width="39.16" height="87.07" rx="7.72" ry="7.72"/><path class="g" d="M232.74,318.94a3.83,3.83,0,1,0,7.66,0V265.77a3.83,3.83,0,1,0-7.66,0v53.18Z" transform="translate(-216.99 -250.94)"/><path class="h" d="M232.74,318.94a3.83,3.83,0,1,0,7.66,0V280.66a3.83,3.83,0,0,0-7.66,0v38.28Z" transform="translate(-216.99 -250.94)"/><circle class="i" cx="19.58" cy="70.97" r="7.89"/><path class="g" d="M249.13,269.24a0.77,0.77,0,0,1-.77.77h-3.59a0.77,0.77,0,0,1-.77-0.77h0a0.77,0.77,0,0,1,.77-0.77h3.59a0.77,0.77,0,0,1,.77.77h0Z" transform="translate(-216.99 -250.94)"/><path class="g" d="M249.13,280.43a0.77,0.77,0,0,1-.77.77h-3.59a0.77,0.77,0,0,1-.77-0.77h0a0.77,0.77,0,0,1,.77-0.77h3.59a0.77,0.77,0,0,1,.77.77h0Z" transform="translate(-216.99 -250.94)"/><path class="g" d="M249.13,291.63a0.77,0.77,0,0,1-.77.77h-3.59a0.77,0.77,0,0,1-.77-0.77h0a0.77,0.77,0,0,1,.77-0.77h3.59a0.77,0.77,0,0,1,.77.77h0Z" transform="translate(-216.99 -250.94)"/><path class="g" d="M249.13,302.82a0.77,0.77,0,0,1-.77.77h-3.59a0.77,0.77,0,0,1-.77-0.77h0a0.77,0.77,0,0,1,.77-0.77h3.59a0.77,0.77,0,0,1,.77.77h0Z" transform="translate(-216.99 -250.94)"/><path class="g" d="M249.13,314a0.77,0.77,0,0,1-.77.77h-3.59A0.77,0.77,0,0,1,244,314h0a0.77,0.77,0,0,1,.77-0.77h3.59a0.77,0.77,0,0,1,.77.77h0Z" transform="translate(-216.99 -250.94)"/></g></svg>