<svg xmlns="http://www.w3.org/2000/svg" xmlns:xlink="http://www.w3.org/1999/xlink" viewBox="0 0 92.11 94.23"><defs><style>.a{isolation:isolate;}.b{fill:url(#a);}.c,.d,.e,.g,.i,.k,.m,.o,.q,.s{mix-blend-mode:overlay;}.c{fill:url(#b);}.d{opacity:0.4;fill:url(#c);}.e{opacity:0.2;fill:url(#d);}.f{fill:url(#e);}.g{fill:url(#f);}.h{fill:url(#g);}.i{fill:url(#h);}.j{fill:url(#i);}.k{fill:url(#j);}.l{fill:url(#k);}.m{fill:url(#l);}.n{fill:url(#m);}.o{fill:url(#n);}.p{fill:url(#o);}.q{fill:url(#p);}.r{fill:url(#q);}.s{fill:url(#r);}</style><radialGradient id="a" cx="249.33" cy="153.27" r="70.26" gradientTransform="translate(498.65 265.24) rotate(180) scale(1 0.73)" gradientUnits="userSpaceOnUse"><stop offset="0" stop-color="#fff"/><stop offset="0.2" stop-color="#d5f3ff"/><stop offset="1" stop-color="#85bcf1"/></radialGradient><radialGradient id="b" cx="1440.42" cy="-1598.43" r="8.48" gradientTransform="matrix(-0.84, 1.15, -1.62, -1.31, -1133.59, -3602.4)" gradientUnits="userSpaceOnUse"><stop offset="0" stop-color="#fff"/><stop offset="0.1" stop-color="#fff" stop-opacity="0.85"/><stop offset="0.29" stop-color="#fff" stop-opacity="0.59"/><stop offset="0.47" stop-color="#fff" stop-opacity="0.38"/><stop offset="0.63" stop-color="#fff" stop-opacity="0.22"/><stop offset="0.78" stop-color="#fff" stop-opacity="0.1"/><stop offset="0.91" stop-color="#fff" stop-opacity="0.03"/><stop offset="1" stop-color="#fff" stop-opacity="0"/></radialGradient><radialGradient id="c" cx="1440.16" cy="-1614.09" r="6.66" xlink:href="#b"/><radialGradient id="d" cx="202.59" cy="191.02" r="4.87" gradientTransform="translate(-221.16 -222.13) rotate(-25.71) scale(1 2.91)" xlink:href="#b"/><radialGradient id="e" cx="-79.15" cy="212.55" r="9.89" gradientTransform="translate(384.56 71.8) rotate(30)" gradientUnits="userSpaceOnUse"><stop offset="0" stop-color="#d0f2ff"/><stop offset="0.2" stop-color="#d5f3ff"/><stop offset="1" stop-color="#85bcf1"/></radialGradient><radialGradient id="f" cx="1613.37" cy="-1487.89" r="1.55" gradientTransform="matrix(-1.3, 0.58, -0.75, -1.95, 1204.38, -3614.57)" xlink:href="#b"/><radialGradient id="g" cx="-64.26" cy="203.96" r="9.89" xlink:href="#e"/><radialGradient id="h" cx="1602.1" cy="-1491.24" r="1.55" gradientTransform="matrix(-1.3, 0.58, -0.75, -1.95, 1204.38, -3614.57)" xlink:href="#b"/><radialGradient id="i" cx="-49.37" cy="195.36" r="9.89" xlink:href="#e"/><radialGradient id="j" cx="1590.83" cy="-1494.6" r="1.55" gradientTransform="matrix(-1.3, 0.58, -0.75, -1.95, 1204.38, -3614.57)" xlink:href="#b"/><radialGradient id="k" cx="-34.48" cy="186.76" r="9.89" xlink:href="#e"/><radialGradient id="l" cx="1579.56" cy="-1497.95" r="1.55" gradientTransform="matrix(-1.3, 0.58, -0.75, -1.95, 1204.38, -3614.57)" xlink:href="#b"/><radialGradient id="m" cx="-64.49" cy="220.76" r="9.89" xlink:href="#e"/><radialGradient id="n" cx="1611.37" cy="-1495.91" r="1.55" gradientTransform="matrix(-1.3, 0.58, -0.75, -1.95, 1204.38, -3614.57)" xlink:href="#b"/><radialGradient id="o" cx="-49.6" cy="212.17" r="9.89" xlink:href="#e"/><radialGradient id="p" cx="1600.1" cy="-1499.26" r="1.55" gradientTransform="matrix(-1.3, 0.58, -0.75, -1.95, 1204.38, -3614.57)" xlink:href="#b"/><radialGradient id="q" cx="-34.71" cy="203.57" r="9.89" xlink:href="#e"/><radialGradient id="r" cx="1588.83" cy="-1502.62" r="1.55" gradientTransform="matrix(-1.3, 0.58, -0.75, -1.95, 1204.38, -3614.57)" xlink:href="#b"/></defs><title>rain</title><g class="a"><path class="b" d="M264.65,164.64a27,27,0,0,0-53.88,0,20.12,20.12,0,0,0,1,40.22h51.86A20.12,20.12,0,0,0,264.65,164.64Z" transform="translate(-191.66 -139.5)"/><path class="c" d="M237.71,167.15c-7.58-6.15-10.53-15.5-6.61-20.9s13.26-4.79,20.84,1.35,10.53,15.51,6.6,20.9S245.29,173.29,237.71,167.15Z" transform="translate(-191.66 -139.5)"/><path class="d" d="M264.79,185.31c-6-4.83-8.28-12.19-5.19-16.43S270,165.12,276,169.94s8.27,12.19,5.19,16.43S270.75,190.14,264.79,185.31Z" transform="translate(-191.66 -139.5)"/><path class="e" d="M206,186c-4.39-6.85-9.5-10.15-11.41-7.37s0.11,10.59,4.5,17.44,9.5,10.15,11.41,7.37S210.44,192.84,206,186Z" transform="translate(-191.66 -139.5)"/><path class="f" d="M215.24,217.23a4.11,4.11,0,0,1-7.12-4.11c1.14-2,8.16-5.91,8.16-5.91S216.37,215.26,215.24,217.23Z" transform="translate(-191.66 -139.5)"/><path class="g" d="M208.24,216.55c-0.64-1.66-.25-3.42.87-3.91s2.54,0.45,3.17,2.12,0.25,3.42-.86,3.91S208.88,218.21,208.24,216.55Z" transform="translate(-191.66 -139.5)"/><path class="h" d="M232.43,217.23a4.11,4.11,0,0,1-7.12-4.11c1.14-2,8.16-5.91,8.16-5.91S233.57,215.26,232.43,217.23Z" transform="translate(-191.66 -139.5)"/><path class="i" d="M225.43,216.55c-0.64-1.66-.25-3.42.87-3.91s2.54,0.45,3.17,2.12,0.25,3.42-.87,3.91S226.07,218.21,225.43,216.55Z" transform="translate(-191.66 -139.5)"/><path class="j" d="M249.63,217.23a4.11,4.11,0,0,1-7.12-4.11c1.14-2,8.16-5.91,8.16-5.91S250.76,215.26,249.63,217.23Z" transform="translate(-191.66 -139.5)"/><path class="k" d="M242.62,216.55c-0.64-1.66-.25-3.42.87-3.91s2.54,0.45,3.17,2.12,0.25,3.42-.86,3.91S243.26,218.21,242.62,216.55Z" transform="translate(-191.66 -139.5)"/><path class="l" d="M266.82,217.23a4.11,4.11,0,0,1-7.12-4.11c1.14-2,8.16-5.91,8.16-5.91S268,215.26,266.82,217.23Z" transform="translate(-191.66 -139.5)"/><path class="m" d="M259.82,216.55c-0.64-1.66-.25-3.42.87-3.91s2.54,0.45,3.17,2.12,0.25,3.42-.87,3.91S260.45,218.21,259.82,216.55Z" transform="translate(-191.66 -139.5)"/><path class="n" d="M223.84,231.68a4.11,4.11,0,0,1-7.12-4.11c1.13-2,8.16-5.91,8.16-5.91S225,229.71,223.84,231.68Z" transform="translate(-191.66 -139.5)"/><path class="o" d="M216.83,231c-0.64-1.66-.25-3.42.87-3.91s2.54,0.45,3.17,2.12,0.25,3.42-.86,3.91S217.47,232.66,216.83,231Z" transform="translate(-191.66 -139.5)"/><path class="p" d="M241,231.68a4.11,4.11,0,0,1-7.12-4.11c1.14-2,8.16-5.91,8.16-5.91S242.16,229.71,241,231.68Z" transform="translate(-191.66 -139.5)"/><path class="q" d="M234,231c-0.64-1.66-.25-3.42.87-3.91s2.54,0.45,3.17,2.12,0.25,3.42-.86,3.91S234.67,232.66,234,231Z" transform="translate(-191.66 -139.5)"/><path class="r" d="M258.22,231.68a4.11,4.11,0,0,1-7.12-4.11c1.14-2,8.16-5.91,8.16-5.91S259.36,229.71,258.22,231.68Z" transform="translate(-191.66 -139.5)"/><path class="s" d="M251.22,231c-0.64-1.66-.25-3.42.87-3.91s2.54,0.45,3.17,2.12,0.25,3.42-.87,3.91S251.86,232.66,251.22,231Z" transform="translate(-191.66 -139.5)"/></g></svg>