<svg xmlns="http://www.w3.org/2000/svg" xmlns:xlink="http://www.w3.org/1999/xlink" viewBox="0 0 456.11 46.77"><defs><style>.a{fill:url(#a);}.b{fill:#fff;}</style><radialGradient id="a" cx="304.37" cy="396.37" r="150.56" gradientTransform="translate(-99.92 -372.99) scale(1.08 1)" gradientUnits="userSpaceOnUse"><stop offset="0" stop-color="#282828"/><stop offset="0.31" stop-color="#232324"/><stop offset="0.66" stop-color="#151617"/><stop offset="1" stop-color="#010204"/></radialGradient></defs><title>road 2</title><rect class="a" width="456.11" height="46.77"/><rect class="b" x="11.83" y="22.45" width="8.4" height="1.87"/><path class="b" d="M503.11,397.31H486v-1.87h17.1v1.87Zm-34.2,0h-17.1v-1.87h17.1v1.87Zm-34.2,0h-17.1v-1.87h17.1v1.87Zm-34.2,0h-17.1v-1.87h17.1v1.87Zm-34.2,0h-17.1v-1.87h17.1v1.87Zm-34.2,0H315v-1.87h17.1v1.87Zm-34.2,0h-17.1v-1.87h17.1v1.87Zm-34.2,0h-17.1v-1.87h17.1v1.87Zm-34.2,0h-17.1v-1.87h17.1v1.87Zm-34.2,0h-17.1v-1.87h17.1v1.87Zm-34.2,0H144v-1.87h17.1v1.87Zm-34.2,0h-17.1v-1.87h17.1v1.87Z" transform="translate(-72.5 -372.99)"/><rect class="b" x="447.71" y="22.45" width="8.4" height="1.87"/></svg>