<svg xmlns="http://www.w3.org/2000/svg" xmlns:xlink="http://www.w3.org/1999/xlink" viewBox="0 0 444.28 46.77"><defs><style>.a{fill:url(#a);}.b{fill:#e6b947;}.c{fill:#fff;}</style><radialGradient id="a" cx="220.04" cy="23.39" r="150.56" gradientUnits="userSpaceOnUse"><stop offset="0" stop-color="#282828"/><stop offset="0.31" stop-color="#232324"/><stop offset="0.66" stop-color="#151617"/><stop offset="1" stop-color="#010204"/></radialGradient></defs><title>road</title><rect class="a" x="8.4" width="423.28" height="46.77"/><rect class="b" y="6.05" width="444.28" height="0.93"/><rect class="b" y="39.22" width="444.28" height="0.93"/><rect class="c" y="22.45" width="8.4" height="1.87"/><path class="c" d="M503.11,397.31H486v-1.87h17.1v1.87Zm-34.2,0h-17.1v-1.87h17.1v1.87Zm-34.2,0h-17.1v-1.87h17.1v1.87Zm-34.2,0h-17.1v-1.87h17.1v1.87Zm-34.2,0h-17.1v-1.87h17.1v1.87Zm-34.2,0H315v-1.87h17.1v1.87Zm-34.2,0h-17.1v-1.87h17.1v1.87Zm-34.2,0h-17.1v-1.87h17.1v1.87Zm-34.2,0h-17.1v-1.87h17.1v1.87Zm-34.2,0h-17.1v-1.87h17.1v1.87Zm-34.2,0H144v-1.87h17.1v1.87Zm-34.2,0h-17.1v-1.87h17.1v1.87Z" transform="translate(-84.33 -372.99)"/><rect class="c" x="435.88" y="22.45" width="8.4" height="1.87"/></svg>