<svg xmlns="http://www.w3.org/2000/svg" xmlns:xlink="http://www.w3.org/1999/xlink" viewBox="0 0 106.77 92.43"><defs><style>.a{isolation:isolate;}.b{fill:url(#a);}.c{fill:url(#b);}.d,.e,.h,.i,.j,.m,.n,.o,.q,.s,.u,.w{mix-blend-mode:overlay;}.d{fill:url(#c);}.e,.i,.n{opacity:0.4;}.e{fill:url(#d);}.f{fill:url(#e);}.g{fill:url(#f);}.h{fill:url(#g);}.i{fill:url(#h);}.j,.o{opacity:0.2;}.j{fill:url(#i);}.k{fill:url(#j);}.l{fill:url(#k);}.m{fill:url(#l);}.n{fill:url(#m);}.o{fill:url(#n);}.p{fill:url(#o);}.q{fill:url(#p);}.r{fill:url(#q);}.s{fill:url(#r);}.t{fill:url(#s);}.u{fill:url(#t);}.v{fill:url(#u);}.w{fill:url(#v);}</style><linearGradient id="a" x1="90.08" y1="-1.14" x2="22.82" y2="74.02" gradientUnits="userSpaceOnUse"><stop offset="0" stop-color="#ffba24"/><stop offset="1" stop-color="#f50"/></linearGradient><radialGradient id="b" cx="329.68" cy="387.26" r="53.81" gradientTransform="matrix(-1, 0, 0, 1, 391.35, -367.18)" gradientUnits="userSpaceOnUse"><stop offset="0" stop-color="#fff4c3"/><stop offset="0.16" stop-color="#ffe036"/><stop offset="1" stop-color="#fa761c"/></radialGradient><radialGradient id="c" cx="1566.22" cy="-1667.23" r="8.08" gradientTransform="matrix(-0.84, 1.15, -1.62, -1.31, -1133.59, -3602.4)" gradientUnits="userSpaceOnUse"><stop offset="0" stop-color="#fff"/><stop offset="0.1" stop-color="#fff" stop-opacity="0.85"/><stop offset="0.29" stop-color="#fff" stop-opacity="0.59"/><stop offset="0.47" stop-color="#fff" stop-opacity="0.38"/><stop offset="0.63" stop-color="#fff" stop-opacity="0.22"/><stop offset="0.78" stop-color="#fff" stop-opacity="0.1"/><stop offset="0.91" stop-color="#fff" stop-opacity="0.03"/><stop offset="1" stop-color="#fff" stop-opacity="0"/></radialGradient><radialGradient id="d" cx="-2601.6" cy="2814.79" r="7.79" gradientTransform="matrix(-1.17, -1.1, 0.22, -0.73, -3449.59, -393.7)" xlink:href="#c"/><radialGradient id="e" cx="214.73" cy="415.69" r="37.04" gradientTransform="translate(429.46 719.34) rotate(180) scale(1 0.73)" gradientUnits="userSpaceOnUse"><stop offset="0" stop-color="#fff"/><stop offset="0.2" stop-color="#d5f3ff"/><stop offset="1" stop-color="#85bcf1"/></radialGradient><radialGradient id="f" cx="223.13" cy="420.52" r="42.11" gradientUnits="userSpaceOnUse"><stop offset="0" stop-color="#ffe036"/><stop offset="0.08" stop-color="#fecb31" stop-opacity="0.81"/><stop offset="0.18" stop-color="#fdb52b" stop-opacity="0.6"/><stop offset="0.28" stop-color="#fca227" stop-opacity="0.41"/><stop offset="0.38" stop-color="#fb9223" stop-opacity="0.26"/><stop offset="0.48" stop-color="#fb8620" stop-opacity="0.15"/><stop offset="0.58" stop-color="#fa7d1e" stop-opacity="0.07"/><stop offset="0.68" stop-color="#fa781c" stop-opacity="0.02"/><stop offset="0.77" stop-color="#fa761c" stop-opacity="0"/></radialGradient><radialGradient id="g" cx="1596.79" cy="-1659.44" r="4.47" xlink:href="#c"/><radialGradient id="h" cx="1596.66" cy="-1667.7" r="3.51" xlink:href="#c"/><radialGradient id="i" cx="190.09" cy="435.59" r="2.57" gradientTransform="translate(-531.23 -624.47) rotate(-25.71) scale(1 2.91)" xlink:href="#c"/><radialGradient id="j" cx="277.04" cy="387.17" r="28.68" gradientTransform="translate(554.08 670) rotate(180) scale(1 0.73)" xlink:href="#e"/><radialGradient id="k" cx="258.3" cy="397.02" r="38.33" xlink:href="#f"/><radialGradient id="l" cx="1553.19" cy="-1675.67" r="3.46" xlink:href="#c"/><radialGradient id="m" cx="1553.09" cy="-1682.06" r="2.72" xlink:href="#c"/><radialGradient id="n" cx="257.96" cy="402.58" r="1.99" gradientTransform="translate(-482.84 -541.46) rotate(-25.71) scale(1 2.91)" xlink:href="#c"/><radialGradient id="o" cx="41.01" cy="420.68" r="9.89" gradientTransform="translate(384.56 71.8) rotate(30)" gradientUnits="userSpaceOnUse"><stop offset="0" stop-color="#d0f2ff"/><stop offset="0.2" stop-color="#d5f3ff"/><stop offset="1" stop-color="#85bcf1"/></radialGradient><radialGradient id="p" cx="1673.72" cy="-1593.42" r="1.55" gradientTransform="matrix(-1.3, 0.58, -0.75, -1.95, 1204.38, -3614.57)" xlink:href="#c"/><radialGradient id="q" cx="55.9" cy="412.08" r="9.89" xlink:href="#o"/><radialGradient id="r" cx="1662.45" cy="-1596.77" r="1.55" gradientTransform="matrix(-1.3, 0.58, -0.75, -1.95, 1204.38, -3614.57)" xlink:href="#c"/><radialGradient id="s" cx="70.79" cy="403.48" r="9.89" xlink:href="#o"/><radialGradient id="t" cx="1651.18" cy="-1600.13" r="1.55" gradientTransform="matrix(-1.3, 0.58, -0.75, -1.95, 1204.38, -3614.57)" xlink:href="#c"/><radialGradient id="u" cx="85.68" cy="394.89" r="9.89" xlink:href="#o"/><radialGradient id="v" cx="1639.91" cy="-1603.48" r="1.55" gradientTransform="matrix(-1.3, 0.58, -0.75, -1.95, 1204.38, -3614.57)" xlink:href="#c"/></defs><title>sun+rain</title><g class="a"><polygon class="b" points="85.13 61.7 76.75 62.26 75.17 70.51 67.1 68.16 62.79 75.37 56.02 70.4 49.5 75.71 44.84 68.73 36.9 71.48 34.9 63.32 26.5 63.2 27.41 54.85 19.56 51.86 23.28 44.32 16.92 38.83 22.99 33.02 18.89 25.68 26.58 22.3 25.24 14.01 33.63 13.46 35.21 5.2 43.27 7.55 47.58 0.34 54.36 5.3 60.87 0 65.54 6.98 73.47 4.22 75.47 12.39 83.88 12.51 82.96 20.86 90.81 23.85 87.1 31.39 93.45 36.88 87.39 42.69 91.48 50.02 83.79 53.41 85.13 61.7"/><circle class="c" cx="55.19" cy="37.85" r="28.34"/><path class="d" d="M243.83,402.12c-7.22-5.86-10-14.77-6.3-19.92s12.63-4.57,19.85,1.29,10,14.78,6.29,19.92S251,408,243.83,402.12Z" transform="translate(-184.32 -367.18)"/><path class="e" d="M214.46,411.3c1-3.13,5.82-1.84,10.86,2.9s8.36,11.12,7.4,14.26-5.82,1.84-10.86-2.9S213.51,414.43,214.46,411.3Z" transform="translate(-184.32 -367.18)"/><path class="f" d="M222.81,421.68a14.24,14.24,0,0,0-28.41,0,10.61,10.61,0,0,0,.53,21.21h27.34A10.61,10.61,0,0,0,222.81,421.68Z" transform="translate(-184.32 -367.18)"/><path class="g" d="M222.81,421.68a14.24,14.24,0,0,0-28.41,0,10.61,10.61,0,0,0,.53,21.21h27.34A10.61,10.61,0,0,0,222.81,421.68Z" transform="translate(-184.32 -367.18)"/><path class="h" d="M208.61,423c-4-3.24-5.55-8.17-3.48-11s7-2.53,11,.71,5.55,8.18,3.48,11S212.6,426.24,208.61,423Z" transform="translate(-184.32 -367.18)"/><path class="i" d="M222.89,432.58c-3.14-2.55-4.36-6.42-2.74-8.66s5.49-2,8.63.56,4.36,6.43,2.74,8.66S226,435.12,222.89,432.58Z" transform="translate(-184.32 -367.18)"/><path class="j" d="M191.91,432.93c-2.32-3.61-5-5.35-6-3.89s0.06,5.58,2.37,9.2,5,5.36,6,3.89S194.23,436.55,191.91,432.93Z" transform="translate(-184.32 -367.18)"/><path class="k" d="M283.29,391.82a11,11,0,0,0-22,0,8.22,8.22,0,0,0,.41,16.42h21.17A8.22,8.22,0,0,0,283.29,391.82Z" transform="translate(-184.32 -367.18)"/><path class="l" d="M283.29,391.82a11,11,0,0,0-22,0,8.22,8.22,0,0,0,.41,16.42h21.17A8.22,8.22,0,0,0,283.29,391.82Z" transform="translate(-184.32 -367.18)"/><path class="m" d="M272.3,392.84c-3.09-2.51-4.3-6.33-2.7-8.53s5.41-2,8.51.55,4.3,6.33,2.7,8.54S275.39,395.34,272.3,392.84Z" transform="translate(-184.32 -367.18)"/><path class="n" d="M283.35,400.25c-2.43-2-3.38-5-2.12-6.71s4.25-1.54,6.68.43,3.38,5,2.12,6.71S285.78,402.22,283.35,400.25Z" transform="translate(-184.32 -367.18)"/><path class="o" d="M259.37,400.53c-1.79-2.8-3.88-4.14-4.66-3s0,4.32,1.84,7.12,3.88,4.14,4.66,3S261.16,403.33,259.37,400.53Z" transform="translate(-184.32 -367.18)"/><path class="p" d="M215.24,457.55a4.11,4.11,0,0,1-7.12-4.11c1.14-2,8.16-5.91,8.16-5.91S216.37,455.58,215.24,457.55Z" transform="translate(-184.32 -367.18)"/><path class="q" d="M208.24,456.87c-0.64-1.66-.25-3.42.87-3.91s2.54,0.45,3.17,2.12,0.25,3.42-.86,3.91S208.88,458.53,208.24,456.87Z" transform="translate(-184.32 -367.18)"/><path class="r" d="M232.43,457.55a4.11,4.11,0,0,1-7.12-4.11c1.14-2,8.16-5.91,8.16-5.91S233.57,455.58,232.43,457.55Z" transform="translate(-184.32 -367.18)"/><path class="s" d="M225.43,456.87c-0.64-1.66-.25-3.42.87-3.91s2.54,0.45,3.17,2.12,0.25,3.42-.87,3.91S226.07,458.53,225.43,456.87Z" transform="translate(-184.32 -367.18)"/><path class="t" d="M249.62,457.55a4.11,4.11,0,0,1-7.12-4.11c1.14-2,8.16-5.91,8.16-5.91S250.76,455.58,249.62,457.55Z" transform="translate(-184.32 -367.18)"/><path class="u" d="M242.62,456.87c-0.64-1.66-.25-3.42.87-3.91s2.54,0.45,3.17,2.12,0.25,3.42-.86,3.91S243.26,458.53,242.62,456.87Z" transform="translate(-184.32 -367.18)"/><path class="v" d="M266.82,457.55a4.11,4.11,0,0,1-7.12-4.11c1.14-2,8.16-5.91,8.16-5.91S268,455.58,266.82,457.55Z" transform="translate(-184.32 -367.18)"/><path class="w" d="M259.82,456.87c-0.64-1.66-.25-3.42.87-3.91s2.54,0.45,3.17,2.12,0.25,3.42-.87,3.91S260.45,458.53,259.82,456.87Z" transform="translate(-184.32 -367.18)"/></g></svg>