<svg xmlns="http://www.w3.org/2000/svg" xmlns:xlink="http://www.w3.org/1999/xlink" viewBox="0 0 76.53 75.71"><defs><style>.a{isolation:isolate;}.b{fill:url(#a);}.c{fill:url(#b);}.d,.e{mix-blend-mode:overlay;}.d{fill:url(#c);}.e{opacity:0.4;fill:url(#d);}</style><linearGradient id="a" x1="73.16" y1="-1.14" x2="5.9" y2="74.02" gradientUnits="userSpaceOnUse"><stop offset="0" stop-color="#ffba24"/><stop offset="1" stop-color="#f50"/></linearGradient><radialGradient id="b" cx="465.1" cy="56.87" r="53.81" gradientTransform="matrix(-1, 0, 0, 1, 509.85, -36.79)" gradientUnits="userSpaceOnUse"><stop offset="0" stop-color="#fff4c3"/><stop offset="0.16" stop-color="#ffe036"/><stop offset="1" stop-color="#fa761c"/></radialGradient><radialGradient id="c" cx="1445.97" cy="-1521.21" r="8.08" gradientTransform="matrix(-0.84, 1.15, -1.62, -1.31, -1133.59, -3602.4)" gradientUnits="userSpaceOnUse"><stop offset="0" stop-color="#fff"/><stop offset="0.1" stop-color="#fff" stop-opacity="0.85"/><stop offset="0.29" stop-color="#fff" stop-opacity="0.59"/><stop offset="0.47" stop-color="#fff" stop-opacity="0.38"/><stop offset="0.63" stop-color="#fff" stop-opacity="0.22"/><stop offset="0.78" stop-color="#fff" stop-opacity="0.1"/><stop offset="0.91" stop-color="#fff" stop-opacity="0.03"/><stop offset="1" stop-color="#fff" stop-opacity="0"/></radialGradient><radialGradient id="d" cx="-2444.94" cy="3031.66" r="7.79" gradientTransform="matrix(-1.17, -1.1, 0.22, -0.73, -3449.59, -393.7)" xlink:href="#c"/></defs><title>sunny</title><g class="a"><polygon class="b" points="68.21 61.7 59.83 62.26 58.25 70.51 50.18 68.16 45.87 75.37 39.1 70.4 32.58 75.71 27.91 68.73 19.98 71.48 17.98 63.32 9.58 63.2 10.49 54.85 2.64 51.86 6.36 44.32 0 38.83 6.07 33.02 1.97 25.68 9.66 22.3 8.32 14.01 16.71 13.46 18.29 5.2 26.35 7.55 30.66 0.34 37.44 5.3 43.95 0 48.62 6.98 56.55 4.22 58.55 12.39 66.95 12.51 66.04 20.86 73.89 23.85 70.18 31.39 76.53 36.88 70.47 42.69 74.56 50.02 66.87 53.41 68.21 61.7"/><circle class="c" cx="38.27" cy="37.85" r="28.34"/><path class="d" d="M108.41,71.73c-7.22-5.86-10-14.77-6.3-19.92s12.63-4.57,19.85,1.29S132,67.87,128.26,73,115.62,77.58,108.41,71.73Z" transform="translate(-65.82 -36.79)"/><path class="e" d="M79,80.91c1-3.13,5.82-1.84,10.86,2.9s8.36,11.12,7.4,14.26-5.82,1.84-10.86-2.9S78.08,84,79,80.91Z" transform="translate(-65.82 -36.79)"/></g></svg>