<svg xmlns="http://www.w3.org/2000/svg" viewBox="75 140 454 310">
  <path d="M 395 449 H 149 C 135.3333 444 121.6667 439 108 434 C 99.3333 424 90.6667 414 82 404 C 80.3333 397 78.6667 390 77 383 C 76.3333 375 75.6667 367 75 359 C 78 352 81 345 84 338 C 90.6667 334.3333 97.3333 330.6667 104 327 C 110 322.6667 116 318.3333 122 314 C 126.3333 308.3333 130.6667 302.6667 135 297 C 135.3333 289.6667 135.6667 282.3333 136 275 C 139.3333 271 142.6667 267 146 263 C 152.3333 261.6667 158.6667 260.3333 165 259 C 171 260.6667 177 262.3333 183 264 C 187.6667 268.3333 192.3333 272.6667 197 277 C 216 305.3333 235 333.6667 254 362 C 260.6667 365.3333 267.3333 368.6667 274 372 C 281 371 288 370 295 369 C 300 364.6667 305 360.3333 310 356 C 312.3333 350 314.6667 344 317 338 C 306.6667 305.6667 296.3333 273.3333 286 241 C 286.3333 230.6667 286.6667 220.3333 287 210 C 303.6667 188.3333 320.3333 166.6667 337 145 C 347.3333 143.3333 357.6667 141.6667 368 140 C 375.3333 141.3333 382.6667 142.6667 390 144 C 410.6667 157.6667 431.3333 171.3333 452 185 C 455.3333 191.6667 458.6667 198.3333 462 205 C 461.3333 212 460.6667 219 460 226 C 456 233.6667 452 241.3333 448 249 C 447.3333 255 446.6667 261 446 267 C 450.3333 274 454.6667 281 459 288 C 467.6667 293.3333 476.3333 298.6667 485 304 C 494.3333 308.6667 503.6667 313.3333 513 318 C 516.6667 323.3333 520.3333 328.6667 524 334 C 525.6667 345 527.3333 356 529 367 C 526.6667 376.3333 524.3333 385.6667 522 395 C 514.6667 407.3333 507.3333 419.6667 500 432 C 474.6667 438 449.3333 444 424 450 Z" stroke="#FF0000" stroke-width="0.1" fill="none"/>
</svg>